<?xml version="1.0" encoding="utf-8"?>
<svg id="master-artboard" viewBox="0 0 494 484" version="1.1" xmlns="http://www.w3.org/2000/svg" x="0px" y="0px" style="enable-background:new 0 0 1400 980;" width="494px" height="484px"><rect id="ee-background" x="0" y="0" width="494" height="484" style="fill: white; fill-opacity: 0; pointer-events: none;"/><g transform="matrix(1.9185602664947512, 0, 0, 1.9185602664947512, -898.3802337947172, -1947.1678615423305)"><g transform="matrix(1, 0, 0, 1, 0, 0)">
			<path fill="#CCCCCC" d="M672.9,1088.9c0-0.1,0-0.1,0.1-0.2l-15.6-24.4l-8-12.5l-0.1,0.5l0-0.1l-11.8,47.8l34.1-10.6L672.9,1088.9&#10;&#9;&#9;&#9;&#9;z" style="fill: rgb(245, 245, 245);"/>
			<path fill="#CCCCCC" d="M674.2,1090.9c-0.3,0-0.6-0.1-0.9-0.3l-33.2,10.3l-1.3,0.4l50.6,16.9l-4.6-8.2L674.2,1090.9z" style="fill: rgb(245, 245, 245);"/>
			<path fill="#CCCCCC" d="M680.4,1082.3l-4.6,6.6c0.1,0.2,0.1,0.3,0.1,0.5c0,0.2-0.1,0.5-0.1,0.7l12.5,22.1l0.6,1.1l-2.5-9.2&#10;&#9;&#9;&#9;&#9;L680.4,1082.3z" style="fill: rgb(245, 245, 245);"/>
			<path fill="#CCCCCC" d="M647.8,1050.9c-0.1-0.1-0.2-0.2-0.3-0.4l-12.1,0.3l-11.1,0.2c0,0,0,0.1-0.1,0.1l6.7,26.1l5.3,20.5&#10;&#9;&#9;&#9;&#9;L647.8,1050.9z" style="fill: rgb(245, 245, 245);"/>
			<path fill="#CCCCCC" d="M653.6,1055.3l20.8,32.5l3-4.3l1.9-2.7c-0.1-0.2-0.1-0.4-0.1-0.5c0-0.1,0-0.2,0-0.3L653.6,1055.3z" style="fill: rgb(245, 245, 245);"/>
			<path fill="#CCCCCC" d="M562.9,1076.4l6.5,57.1l26.6-44.4c-0.1-0.2-0.1-0.3-0.1-0.5l-24.2-12.3l-9.3-4.8L562.9,1076.4z" style="fill: rgb(245, 245, 245);"/>
			<path fill="#CCCCCC" d="M570.9,1056.7l-8.1,12.5l36-0.4l-27.4-12.2C571.3,1056.6,571.1,1056.6,570.9,1056.7z" style="fill: rgb(245, 245, 245);"/>
			<path fill="#CCCCCC" d="M598.7,1088l10.6,3.5l23.5,7.8l-11.4-10.8l-18.2-17.3l-1.5,5.3l-3.2,11&#10;&#9;&#9;&#9;&#9;C598.6,1087.6,598.7,1087.8,598.7,1088z" style="fill: rgb(245, 245, 245);"/>
			<path fill="#CCCCCC" d="M622.6,1051.8l-2.2,2.1l-16.2,15.5c0,0.1,0,0.2,0,0.2c0,0,0,0.1,0,0.1l30.4,28.9L622.6,1051.8z" style="fill: rgb(245, 245, 245);"/>
			<path fill="#CCCCCC" d="M634,1101.4l-34.6-11.4l-1.2-0.4c-0.2,0.2-0.5,0.3-0.8,0.3l-13.8,23l-12.6,21l18.7-9.7L634,1101.4z" style="fill: rgb(245, 245, 245);"/>
			<path d="M 689.9000244140625 1120.0999755859375 L 637.7000122070312 1102.699951171875 L 658.2000122070312 1151.300048828125 Z" fill="#CCCCCC" style="fill: rgb(245, 245, 245);"/>
			<path fill="#CCCCCC" d="M650.4,1049.6c0,0.1,0,0.1,0,0.2l7.5,7.3l21.8,21l-3-36.1l-0.6-7.1c-1.2-0.8-2.6-1.3-4-1.7L650.4,1049.6z&#10;&#9;&#9;&#9;&#9;" style="fill: rgb(245, 245, 245);"/>
			<path fill="#CCCCCC" d="M654.6,1027.6l-4.3,19.9l19.6-14.8c-1.6-0.2-3.3-0.2-5,0.2c-0.4,0.1-0.8,0.2-1.2,0.3&#10;&#9;&#9;&#9;&#9;c-0.5-1.9-1.2-3.5-2.2-5l-6.7-0.7C654.7,1027.5,654.7,1027.6,654.6,1027.6z" style="fill: rgb(245, 245, 245);"/>
			<path fill="#CCCCCC" d="M714.7,1092.8c0.1-0.6,0.1-1.1,0.1-1.7l-11.4-3.3l-21.4-6.2l8.9,32.6l1.1,4.1l26.7-21.9&#10;&#9;&#9;&#9;&#9;C717.6,1094.9,716.2,1093.7,714.7,1092.8z" style="fill: rgb(245, 245, 245);"/>
			<path fill="#CCCCCC" d="M720.5,1099.5c-0.2-0.6-0.5-1.2-0.8-1.7l-6.1,5l-8.4,6.9l8-5.3L720.5,1099.5z" style="fill: rgb(245, 245, 245);"/>
			<path fill="#CCCCCC" d="M674.2,1157.2l-9-2l-5.8-1.3l10.8,23.3l8.9,19.3l-4-38.5c0,0,0,0,0,0l-1.2,0.7l0.5-1.2&#10;&#9;&#9;&#9;&#9;C674.3,1157.5,674.2,1157.4,674.2,1157.2z" style="fill: rgb(245, 245, 245);"/>
			<path fill="#CCCCCC" d="M684.5,1127.8l-24.9,24.5l8.7,1.9l6.3,1.4c0,0,0.1-0.1,0.1-0.1l-0.2-1.8l1,1.3l13.5-31.6L684.5,1127.8z" style="fill: rgb(245, 245, 245);"/>
			<path fill="#CCCCCC" d="M692.3,1145.9c0-0.4,0.2-0.8,0.6-1.1l-0.8-9l-1.1-12.5l-13.4,31.4l13.1-7.7L692.3,1145.9z" style="fill: rgb(245, 245, 245);"/>
			<path fill="#CCCCCC" d="M553.7,1174.8l-0.3-0.5l1,0.3c0.1-0.1,0.2-0.1,0.3-0.2l0.5-18.8l0.1-3.8l-17,9c2,5.2,5,9.8,8.7,13.7&#10;&#9;&#9;&#9;&#9;L553.7,1174.8z" style="fill: rgb(245, 245, 245);"/>
			<path fill="#CCCCCC" d="M654.6,1025.3C654.6,1025.3,654.6,1025.3,654.6,1025.3l2.8-1.2c-1.1-0.7-2.2-1.4-3.4-1.8L654.6,1025.3z" style="fill: rgb(245, 245, 245);"/>
			<path fill="#CCCCCC" d="M564.8,1070.8l31.8,16.2c0.1,0,0.2-0.1,0.3-0.1l4.2-14.4l0.6-1.9c-0.1-0.1-0.1-0.1-0.2-0.2L564.8,1070.8z&#10;&#9;&#9;&#9;&#9;" style="fill: rgb(245, 245, 245);"/>
			<path fill="#CCCCCC" d="M537,1157.6c0.2,0.5,0.3,1.1,0.5,1.6l8.9-4.7L537,1157.6z" style="fill: rgb(245, 245, 245);"/>
			<path fill="#CCCCCC" d="M478.7,1113.9l0.1-2l0.7,1.3l28.7-61.5l2.8-6.1c-12.3,5.2-21,16.3-23.3,29.2c-9.2,7.7-14.6,19.4-14,31.9&#10;&#9;&#9;&#9;&#9;c-0.8,1.5-1.6,3-2.3,4.5L478.7,1113.9z" style="fill: rgb(245, 245, 245);"/>
			<path fill="#CCCCCC" d="M648.7,1165.9l21.7,34.7c0.1-1.2,0.1-2.3,0.2-3.4c2,0.8,4.1,1.4,6.3,1.7l-12.3-14.3L648.7,1165.9z" style="fill: rgb(245, 245, 245);"/>
			<path fill="#CCCCCC" d="M476.7,1115l-5.9-2.2c-0.5,1.3-0.9,2.7-1.3,4.1L476.7,1115z" style="fill: rgb(245, 245, 245);"/>
			<path fill="#CCCCCC" d="M630.9,1159c-0.1-0.1-0.2-0.2-0.3-0.3l-5.9,1.2l-41.7,8.3l11.8,15.6c6.8-3.1,12.5-7.9,16.8-13.7&#10;&#9;&#9;&#9;&#9;c0.2,0.5,0.5,1,0.8,1.5l0.4-0.5l0.6,1.2c0.6,1.3,1.3,2.6,2.1,3.9c3.7,4.4,8.8,7.5,14.5,8.7l0.6-15.4L630.9,1159z" style="fill: rgb(245, 245, 245);"/>
			<path fill="#CCCCCC" d="M670.5,1213.5c-0.2-3.3-0.3-6.6-0.2-9.8l-7.5-12l-20.4-32.6l-5.8,33.4c0.5,0.8,1,1.6,1.6,2.3&#10;&#9;&#9;&#9;&#9;c1.3,1.1,2.7,2.1,4.2,3c0.6,0.9,1.2,1.8,1.8,2.8c0.7,0.5,1.5,1,2.2,1.5l0.2,0.1l0.1,0.2c3.4,5.1,6.4,10.8,9,17.1L670.5,1213.5z" style="fill: rgb(245, 245, 245);"/>
			<path fill="#CCCCCC" d="M554.1,1150.1c0-0.2,0.1-0.5,0.2-0.7l-16.9-26.3l-8.2-12.8l-9.6,25.5l-11,29.3l14.4-4.8&#10;&#9;&#9;&#9;&#9;c2.5-1.7,4.9-3.6,7-5.8l1.1-1.1l0.4,1.5c0.2,0.8,0.3,1.6,0.6,2.5l0.1,0c1.4-1.1,2.6-2.2,3.8-3.5c0.1,0.7,0.3,1.4,0.5,2.1l4.8-1.6&#10;&#9;&#9;&#9;&#9;L554.1,1150.1z" style="fill: rgb(245, 245, 245);"/>
			<path fill="#CCCCCC" d="M628.5,1157.4l-54.3-18.6l-3.9-1.3l1.3,3.1l10.3,25.6c0.2,0.1,0.4,0.2,0.6,0.3l0.9-0.3l-0.1,0.3&#10;&#9;&#9;&#9;&#9;L628.5,1157.4z" style="fill: rgb(245, 245, 245);"/>
			<path fill="#CCCCCC" d="M469.1,1134.3c1.4,6.8,4.4,12.9,8.6,17.8l0.9-35.3c-0.2-0.1-0.3-0.2-0.5-0.4l-9,2.4l0,0&#10;&#9;&#9;&#9;&#9;C468.1,1123.8,468.1,1129,469.1,1134.3z" style="fill: rgb(245, 245, 245);"/>
			<path fill="#CCCCCC" d="M559.7,1019.5l12.4,8c0.1-0.1,0.2-0.1,0.4-0.1l8-13.7c-0.7,0.1-1.4,0.2-2.1,0.3&#10;&#9;&#9;&#9;&#9;c-4.2,0.8-7.8,2.7-10.8,5.4C565,1019.2,562.4,1019.2,559.7,1019.5z" style="fill: rgb(245, 245, 245);"/>
			<path fill="#CCCCCC" d="M573.4,1030.3C573.4,1030.3,573.4,1030.3,573.4,1030.3l-0.6,9.1l-0.9,13.1l12.1-15.9c0-0.1,0-0.1-0.1-0.2&#10;&#9;&#9;&#9;&#9;l-1.6-0.6l0.7-0.1L573.4,1030.3z" style="fill: rgb(245, 245, 245);"/>
			<path fill="#CCCCCC" d="M685.4,1080.7l29.3,8.5c0-0.3-0.1-0.6-0.1-0.8c-0.8-4.1-3.4-7.4-6.8-9.3c0-0.1,0-0.2,0-0.4L685.4,1080.7z&#10;&#9;&#9;&#9;&#9;" style="fill: rgb(245, 245, 245);"/>
			<path fill="#CCCCCC" d="M681.9,1079.3l2.3-0.2l23.5-2.1c-0.1-0.8-0.2-1.6-0.3-2.4c-1.3-6.6-5.7-11.8-11.4-14.3&#10;&#9;&#9;&#9;&#9;c-0.1-0.6-0.2-1.2-0.3-1.8c-1.4-7.1-6.4-12.6-12.7-14.9c-0.9-3-2.7-5.5-5-7.4l3.5,42.7C681.7,1079,681.8,1079.1,681.9,1079.3z" style="fill: rgb(245, 245, 245);"/>
			<path fill="#CCCCCC" d="M480.3,1118.4l-0.4,17.2l-0.5,18.3c1,1,2,2,3.1,2.9l22.9,8.2L480.3,1118.4z" style="fill: rgb(245, 245, 245);"/>
			<path d="M 508.70001220703125 1160.199951171875 L 527.7999877929688 1109.5 L 480.8999938964844 1115.800048828125 L 507.1000061035156 1164.5 Z" fill="#CCCCCC" style="fill: rgb(245, 245, 245);"/>
			<path fill="#CCCCCC" d="M528.1,1107.3l-10.4-68.3c-1.2,1.1-2.2,2.3-3.2,3.5l-16,34.2l-17.4,37.3l30.3-4.1l16.3-2.2&#10;&#9;&#9;&#9;&#9;C527.8,1107.6,527.9,1107.5,528.1,1107.3z" style="fill: rgb(245, 245, 245);"/>
			<path fill="#CCCCCC" d="M555.9,1075l3.9-4.6c0-0.1-0.1-0.3-0.1-0.4c0-0.1,0-0.1,0-0.1l-14-11.7l-25.5-21.4&#10;&#9;&#9;&#9;&#9;c-0.4,0.3-0.7,0.6-1.1,0.9l10.5,68.8L555.9,1075z" style="fill: rgb(245, 245, 245);"/>
			<path fill="#CCCCCC" d="M556,1148.8c0.1,0,0.2,0,0.2,0.1l5.5-6.2l5.3-5.9c-0.1-0.1-0.1-0.3-0.1-0.4l-0.3-0.1l0.3-0.2&#10;&#9;&#9;&#9;&#9;c0-0.1,0-0.2,0-0.2l-34.8-24.2l19.7,30.7L556,1148.8z" style="fill: rgb(245, 245, 245);"/>
			<path fill="#CCCCCC" d="M574.2,1028.8l10.5,5.8c0.1,0,0.2-0.1,0.3-0.1l6.2-19.1l0.1-0.2c-2.1-0.8-4.3-1.3-6.6-1.5l-10.6,14.7&#10;&#9;&#9;&#9;&#9;C574.2,1028.5,574.2,1028.7,574.2,1028.8z" style="fill: rgb(245, 245, 245);"/>
			<path fill="#CCCCCC" d="M536.5,1029.3c-4.9,1-9.5,2.9-13.4,5.5l31.7,13l14.5,5.9l-11.1-27.8l-2.3-5.7c-6.5,1.5-12.3,4.5-16.9,8.7&#10;&#9;&#9;&#9;&#9;C538.1,1029,537.3,1029.1,536.5,1029.3z" style="fill: rgb(245, 245, 245);"/>
			<path fill="#CCCCCC" d="M582.6,1013.6C582.6,1013.6,582.6,1013.6,582.6,1013.6l-0.3,0.4L582.6,1013.6z" style="fill: rgb(245, 245, 245);"/>
			<path fill="#CCCCCC" d="M501.7,1165.5l-13.9-5C492,1163,496.8,1164.7,501.7,1165.5z" style="fill: rgb(245, 245, 245);"/>
			<path fill="#CCCCCC" d="M524,1161.9L524,1161.9L524,1161.9c-1,0.6-1.9,1.2-2.8,1.7c3.4-1.2,6.6-2.9,9.5-5&#10;&#9;&#9;&#9;&#9;c-0.2-0.6-0.3-1.2-0.4-1.7C528.3,1158.7,526.3,1160.4,524,1161.9L524,1161.9L524,1161.9C524,1161.9,524,1161.9,524,1161.9z" style="fill: rgb(245, 245, 245);"/>
			<path fill="#CCCCCC" d="M639.7,1025l0.8-0.1l-0.3,0.4l12.2,0.4c0.1-0.2,0.3-0.3,0.5-0.5l-0.7-3.5c-1.6-0.4-3.2-0.5-4.9-0.4&#10;&#9;&#9;&#9;&#9;c-2.1-2.4-4.8-4.1-7.8-4.9l0,8.4C639.5,1024.8,639.6,1024.9,639.7,1025z" style="fill: rgb(245, 245, 245);"/>
			<path fill="#CCCCCC" d="M586.7,1034.9l50-9.3l-13.6-12.3c-2.3-0.6-4.7-0.7-7.2-0.2c-1.2,0.2-2.3,0.6-3.3,1.1&#10;&#9;&#9;&#9;&#9;c-4.3-1.9-9.1-2.6-14.1-1.6c-1.8,0.4-3.5,0.9-5.2,1.7L586.7,1034.9L586.7,1034.9z" style="fill: rgb(245, 245, 245);"/>
			<path fill="#CCCCCC" d="M712.5,1130.1c6.8-2,11-8.9,9.6-15.9c-0.3-1.6-0.9-3-1.6-4.3c1-2.4,1.4-5.2,0.8-8&#10;&#9;&#9;&#9;&#9;c-0.1-0.3-0.1-0.5-0.2-0.8l-8.6,5.7l-19.4,12.9c0,0,0,0,0,0l15.4,11.3l9.8,7.2c-0.4-0.9-0.9-1.8-1.4-2.7&#10;&#9;&#9;&#9;&#9;C715.6,1133.6,714.1,1131.7,712.5,1130.1z" style="fill: rgb(245, 245, 245);"/>
			<path fill="#CCCCCC" d="M627,1014.4l10.8,9.7l0-8.1c-0.2,0-0.4-0.1-0.7-0.1C634,1014.4,630.5,1013.7,627,1014.4z" style="fill: rgb(245, 245, 245);"/>
			<path fill="#CCCCCC" d="M707.6,1171.8c9.2-5.5,13.8-15.6,12.7-25.6l-13.8,0.3l-11.4,0.3c0,0-0.1,0.1-0.1,0.1l10.2,34.6&#10;&#9;&#9;&#9;&#9;c1-2.9,1.5-6,1.5-9.2C707,1172.1,707.3,1171.9,707.6,1171.8z" style="fill: rgb(245, 245, 245);"/>
			<path fill="#CCCCCC" d="M652.4,1027.3l-12.5-0.4l8.8,19.9l4.1-19.1C652.7,1027.6,652.5,1027.5,652.4,1027.3z" style="fill: rgb(245, 245, 245);"/>
			<path fill="#CCCCCC" d="M703.3,1144.9l16.8-0.4c-0.2-1.1-0.5-2.1-0.8-3.2l-20.5-15.1l-6.3-4.7l0.8,9.3l1.3,13.7&#10;&#9;&#9;&#9;&#9;c0.2,0.1,0.4,0.3,0.5,0.4L703.3,1144.9z" style="fill: rgb(245, 245, 245);"/>
			<path fill="#CCCCCC" d="M672.1,1228.4c-0.6-4.2-1.2-8.7-1.5-13.1l-14.3,5.7c4.5,11.3,7.6,24.2,9.2,38.5L672.1,1228.4z" style="fill: rgb(245, 245, 245);"/>
			<path fill="#CCCCCC" d="M563.6,1178.6l-6.2-1.5l5.7,8c2.2,0.8,4.4,1.4,6.7,1.8l3-6.2L563.6,1178.6z" style="fill: rgb(245, 245, 245);"/>
			<path fill="#CCCCCC" d="M654.4,1220.8L654.4,1220.8L654.4,1220.8l-0.4-0.8l0,0c-1.8-4.3-3.7-8.3-5.9-12&#10;&#9;&#9;&#9;&#9;c5.8,11.9,11.1,29.2,12.4,53.6l3.4-0.7C662.3,1246,659.1,1232.5,654.4,1220.8z" style="fill: rgb(245, 245, 245);"/>
			<path fill="#CCCCCC" d="M580.7,1187.5l-4.6-4.2l-1.8-1.7l-2.7,5.6C574.6,1187.7,577.6,1187.8,580.7,1187.5z" style="fill: rgb(245, 245, 245);"/>
			<path fill="#CCCCCC" d="M581.6,1169.2l-4.1,6.9l-2.3,3.9l7.9,7.2c0.9-0.1,1.8-0.3,2.6-0.4c2.6-0.5,5.1-1.3,7.5-2.2l-5.1-6.7&#10;&#9;&#9;&#9;&#9;L581.6,1169.2z" style="fill: rgb(245, 245, 245);"/>
			<path fill="#CCCCCC" d="M634.5,1188.3l0.2,0.5c0.2,0.4,0.4,0.8,0.6,1.2l5.6-32.3c0,0-0.1-0.1-0.1-0.1l-7.5,0.7&#10;&#9;&#9;&#9;&#9;c-0.1,0.3-0.3,0.5-0.6,0.7l-0.3,8.6l-0.7,18.3c0.3,0.7,0.7,1.4,1.1,2.1c0.4,0.1,0.9,0.2,1.3,0.3H634.5z" style="fill: rgb(245, 245, 245);"/>
			<path fill="#CCCCCC" d="M672.9,1233.1l-4.3,20.1l-1.5,7l11.5-2.3C678.6,1257.9,675.3,1247.2,672.9,1233.1z" style="fill: rgb(245, 245, 245);"/>
			<path fill="#CCCCCC" d="M522.5,1036.4l29.6,24.8l8.7,7.3c0.1,0,0.3-0.1,0.4-0.1l0.1-0.2l8-12.4c0-0.1-0.1-0.1-0.1-0.2l-12.5-5.1&#10;&#9;&#9;&#9;&#9;L522.5,1036.4z" style="fill: rgb(245, 245, 245);"/>
			<path fill="#CCCCCC" d="M570.2,1051.5l1.5-21.4c-0.3-0.3-0.5-0.7-0.5-1.1l-0.6-0.4l-13-8.4l6.4,15.9L570.2,1051.5z" style="fill: rgb(245, 245, 245);"/>
			<path fill="#CCCCCC" d="M567.7,1134.3l-5.2-45.7l-1.9-16.5l-21.4,25.6l-8.8,10.5c0,0.1,0,0.2,0,0.3L567.7,1134.3z" style="fill: rgb(245, 245, 245);"/>
			<path fill="#CCCCCC" d="M552.7,1176.5l-4.1-0.2c0.6,0.6,1.3,1.1,1.9,1.7L552.7,1176.5z" style="fill: rgb(245, 245, 245);"/>
			<path fill="#CCCCCC" d="M587.2,1037.6l6,11.6l9.8,18.8c0,0,0,0,0,0l0.7-0.6l17.8-16.9c0,0,0,0,0,0L587.2,1037.6L587.2,1037.6z" style="fill: rgb(245, 245, 245);"/>
			<path d="M 624.7000122070312 1049.300048828125 L 640.9000244140625 1048.9000244140625 L 647.7000122070312 1048.800048828125 L 638.4000244140625 1027.9000244140625 Z" fill="#CCCCCC" style="fill: rgb(245, 245, 245);"/>
			<path fill="#CCCCCC" d="M572.2,1054.8c0,0.1,0,0.2,0,0.2l15,6.7l13.7,6.1l-11.5-22.2l-4.1-7.9L572.2,1054.8z" style="fill: rgb(245, 245, 245);"/>
			<path fill="#CCCCCC" d="M622.2,1048.9c0.2-0.2,0.5-0.2,0.8-0.2c0,0,0,0,0.1,0l13.7-21.4l-48.2,9L622.2,1048.9z" style="fill: rgb(245, 245, 245);"/>
			<path fill="#CCCCCC" d="M555.8,1177.9l-0.4-0.6c0,0-0.1,0-0.1,0c-0.2,0-0.3,0-0.5-0.1l-2.8,1.9c2.5,1.9,5.3,3.5,8.2,4.9&#10;&#9;&#9;&#9;&#9;L555.8,1177.9z" style="fill: rgb(245, 245, 245);"/>
			<path d="M 631 1156.5 L 634.5 1111.4000244140625 L 635.2000122070312 1102.699951171875 L 571 1135.9000244140625 L 631 1156.5 Z" fill="#CCCCCC" style="fill: rgb(245, 245, 245);"/>
			<path fill="#CCCCCC" d="M643,1155.6l9-2.2l4.5-1.1c0-0.1,0.1-0.2,0.1-0.2l-0.2-0.5l0.1,0l-12.5-29.7l-6.3-14.9l5,48.4&#10;&#9;&#9;&#9;&#9;C642.8,1155.4,642.9,1155.5,643,1155.6z" style="fill: rgb(245, 245, 245);"/>
			<path fill="#CCCCCC" d="M640.5,1156c0.1-0.2,0.2-0.4,0.4-0.5l-0.4-3.5l-4.3-41.1l-3.6,45.8c0,0,0.1,0,0.1,0.1L640.5,1156z" style="fill: rgb(245, 245, 245);"/>
			<path fill="#CCCCCC" d="M677.1,1196.4l-19.4-42.1c-0.3,0-0.6-0.2-0.8-0.4l-10.1,2.5l-3.3,0.8l17.6,20.6L677.1,1196.4z" style="fill: rgb(245, 245, 245);"/>
			<path fill="#CCCCCC" d="M700.3,1190l-6.8-8.8l-16.6-21.6l0.8,7.8l3.3,31.7c1.5,0,3-0.2,4.5-0.5&#10;&#9;&#9;&#9;&#9;C691.5,1197.4,696.6,1194.3,700.3,1190z" style="fill: rgb(245, 245, 245);"/>
			<path d="M 578 1166.300048828125 L 556.7999877929688 1152 L 556.2999877929688 1174.5999755859375 L 579.5 1167.4000244140625 Z" fill="#CCCCCC" style="fill: rgb(245, 245, 245);"/>
			<path d="M 573.5999755859375 1179.199951171875 L 573.7999877929688 1178.9000244140625 L 573.7999877929688 1178.9000244140625 L 579.5999755859375 1169.199951171875 L 558.5999755859375 1175.699951171875 L 561.7999877929688 1176.4000244140625 Z" fill="#CCCCCC" style="fill: rgb(245, 245, 245);"/>
			<path d="M 568.5999755859375 1138 L 568.2000122070312 1138.699951171875 L 568.0999755859375 1138.0999755859375 L 557.2999877929688 1150.199951171875 L 579.7000122070312 1165.4000244140625 Z" fill="#CCCCCC" style="fill: rgb(245, 245, 245);"/>
			<path fill="#CCCCCC" d="M702.7,1178.8l-9.3-31.4c-0.1,0-0.1,0-0.2-0.1l-16.1,9.5c0,0.1,0,0.2,0,0.2l13.6,17.7l10.7,13.9&#10;&#9;&#9;&#9;&#9;c1.1-1.4,2-3,2.8-4.7L702.7,1178.8z" style="fill: rgb(245, 245, 245);"/>
		</g></g></svg>